<svg width="26" height="26" viewBox="0 0 26 26" fill="none" xmlns="http://www.w3.org/2000/svg">
<path d="M23.9332 0.583679H2.06941C0.92485 0.583679 0 1.50766 0 2.65048V23.3298C0 24.4691 0.92485 25.3957 2.06941 25.3957H23.9332C25.0725 25.3957 26 24.47 26 23.3298V2.65048C25.9991 1.50766 25.0717 0.583679 23.9332 0.583679ZM17.4766 7.95035C16.9391 7.63598 16.5127 7.38762 15.9769 7.38762C15.4524 7.38762 15.0043 7.51875 14.775 7.73932C14.5458 7.95816 14.432 8.38194 14.432 9.00806V9.93465H17.2361L16.6291 12.5121H14.432V21.0763H10.9098V12.5121H9.26586V9.93465H10.9115V8.95075C10.9115 7.91474 11.0357 7.2947 11.2806 6.78321C11.5246 6.27346 11.9979 5.70552 12.6561 5.38421C13.3135 5.06377 14.2861 4.90225 15.2926 4.90225C16.3242 4.90225 17.1301 5.24614 18.1184 5.52316L17.4766 7.95035Z" fill="black"/>
</svg>
