<svg width="26" height="26" viewBox="0 0 26 26" fill="none" xmlns="http://www.w3.org/2000/svg">
<path d="M20.475 0.260524H5.525C2.47867 0.260524 0 2.74623 0 5.80232V9.46886V10.5522V20.1776C0 23.2331 2.47867 25.7189 5.525 25.7189H20.475C23.5213 25.7189 26 23.2331 26 20.1776V10.5522V9.46886V5.80232C26 2.74623 23.5213 0.260524 20.475 0.260524ZM24.9167 20.1776C24.9167 22.6357 22.9239 24.6355 20.475 24.6355H5.525C3.07558 24.6355 1.08333 22.6357 1.08333 20.1776V10.5522H7.70304C6.29417 11.9296 5.41667 13.8477 5.41667 15.9689C5.41667 20.1505 8.81833 23.5522 13 23.5522C17.1817 23.5522 20.5833 20.1505 20.5833 15.9689C20.5833 13.8477 19.7058 11.9296 18.297 10.5522H24.9167V20.1776ZM19.5 15.9689C19.5 19.5531 16.5842 22.4689 13 22.4689C9.41579 22.4689 6.5 19.5531 6.5 15.9689C6.5 12.3846 9.41579 9.46886 13 9.46886C16.5842 9.46886 19.5 12.3846 19.5 15.9689ZM16.8859 9.46886C15.7479 8.78582 14.4213 8.38552 13 8.38552C11.5787 8.38552 10.2521 8.78582 9.11408 9.46886H1.08333V5.80232C1.08333 3.34369 3.07613 1.34386 5.525 1.34386H20.475C22.9239 1.34386 24.9167 3.34369 24.9167 5.80232V9.46886H16.8859Z" fill="black"/>
</svg>
