<svg width="30" height="30" viewBox="0 0 30 30" fill="none" xmlns="http://www.w3.org/2000/svg">
<g clip-path="url(#clip0_85_1604)">
<path d="M14.0657 8.89465L11.1595 11.8008C10.0888 12.8715 9.01199 13.9422 7.94741 15.0251C7.69657 15.2821 7.5069 15.6247 7.43348 15.9612C7.04803 17.7294 6.67482 19.4976 6.30161 21.2657L6.09359 22.2447C5.9957 22.7219 6.12418 23.1991 6.44845 23.5234C6.69929 23.7742 7.04803 23.9149 7.41513 23.9149C7.51914 23.9149 7.62315 23.9027 7.72716 23.8843L8.80397 23.658C10.5171 23.297 12.2363 22.9299 13.9494 22.575C14.3471 22.4894 14.6836 22.312 14.9712 22.0244C19.7801 17.2093 24.589 12.4004 29.398 7.59758C29.7528 7.24273 29.9486 6.82057 29.9976 6.30052C30.0037 6.21486 29.9976 6.12921 29.9792 6.04967C29.9486 5.9273 29.9241 5.79882 29.8935 5.67646C29.8262 5.36443 29.7528 5.00957 29.606 4.66695C28.7066 2.61122 27.2138 1.14284 25.1703 0.316878C24.7603 0.151686 24.3259 0.0966215 23.9466 0.0476756L23.8426 0.0354391C23.292 -0.0318616 22.7903 0.151686 22.3559 0.592199C19.6027 3.35764 16.8311 6.12921 14.0657 8.89465ZM23.6407 1.50994C23.6529 1.50994 23.6591 1.50994 23.6713 1.50994L23.7753 1.52217C24.0935 1.55888 24.3871 1.59559 24.6196 1.69348C26.2838 2.36649 27.5074 3.56566 28.2477 5.2543C28.3334 5.45008 28.3885 5.70093 28.4435 5.96401C28.4619 6.06191 28.4864 6.1598 28.5047 6.25769C28.4802 6.36782 28.4374 6.44124 28.3517 6.52077C23.5367 11.3236 18.7278 16.1386 13.9188 20.9476C13.8393 21.0271 13.7659 21.0638 13.6557 21.0883C11.9365 21.4493 10.2234 21.8103 8.50418 22.1712L7.59868 22.3609L7.76999 21.5594C8.1432 19.7974 8.51641 18.0292 8.89574 16.2671C8.90798 16.2121 8.95693 16.1264 9.01199 16.0652C10.0766 14.9884 11.1411 13.9177 12.2118 12.8532L15.118 9.94699C17.8896 7.17543 20.6611 4.40386 23.4266 1.62618C23.5428 1.52829 23.5979 1.50994 23.6407 1.50994Z" fill="#03D2FF"/>
<path d="M2.38 6.6921H13.0624C13.4785 6.6921 13.815 6.3556 13.815 5.93956C13.815 5.52352 13.4785 5.18701 13.0624 5.18701H2.38C1.06457 5.18701 0 6.2577 0 7.56701V27.5981C0 28.9136 1.07069 29.9781 2.38 29.9781H22.405C23.7204 29.9781 24.785 28.9074 24.785 27.5981V17.3501C24.785 16.934 24.4485 16.5975 24.0324 16.5975C23.6164 16.5975 23.2799 16.934 23.2799 17.3501V27.5981C23.2799 28.0815 22.8822 28.4792 22.3989 28.4792H2.38C1.89665 28.4792 1.49897 28.0815 1.49897 27.5981V7.57313C1.49897 7.08978 1.89665 6.6921 2.38 6.6921Z" fill="#03D2FF"/>
</g>
<defs>
<clipPath id="clip0_85_1604">
<rect width="30" height="30" fill="white"/>
</clipPath>
</defs>
</svg>
